<svg
  width="24"
  height="24"
  viewBox="0 0 24 24"
  fill="none"
  xmlns="http://www.w3.org/2000/svg"
>
  <path
    d="M12 2C6.48 2 2 6.48 2 12s4.48 10 10 10 10-4.48 10-10S17.52 2 12 2zm0 18c-4.41 0-8-3.59-8-8s3.59-8 8-8 8 3.59 8 8-3.59 8-8 8zm-2.5-12H9v6h1.5v-2.44h1c1.44 0 2.5-.57 2.5-1.88 0-1.19-1-1.68-2-1.75V9h1.5c.83 0 1.5.67 1.5 1.5S14.83 12 14 12zm-.5-3.44V6c0-.55-.45-1-1-1s-1 .45-1 1v2.56c-1.33.22-2.47 1.07-3.09 2.26-.29.52-.46 1.1-.46 1.73s.17 1.21.46 1.73c.62 1.19 1.76 2.04 3.09 2.26V18c0 .55.45 1 1 1s1-.45 1-1v-2.56c1.33-.22 2.47-1.07 3.09-2.26.29-.52.46-1.1.46-1.73s-.17-1.21-.46-1.73c-.62-1.19-1.76-2.04-3.09-2.26zm-6 3.44H5.5c-.83 0-1.5-.67-1.5-1.5S4.67 9 5.5 9H7v2.25c0 1.2 1 1.68 2 1.75v1.5z"
    fill="#2196F3"
  />
</svg>
